<svg width="231" height="50" viewBox="0 0 231 50" fill="none" xmlns="http://www.w3.org/2000/svg">
<path d="M216.497 23.3368C215.58 23.3368 214.834 24.0829 214.834 25C214.834 25.917 215.58 26.6631 216.497 26.6631C217.414 26.6631 218.16 25.917 218.16 25C218.16 24.0829 217.414 23.3368 216.497 23.3368Z" fill="white"/>
<path d="M217.599 18.2954V21.2946C218.453 21.5489 219.184 22.0907 219.679 22.8078L222.532 21.8809C221.562 20.0114 219.748 18.6473 217.599 18.2954Z" fill="white"/>
<path d="M223.214 23.9756L220.361 24.9028C220.362 24.9352 220.363 24.9674 220.363 25C220.363 25.883 220.065 26.6972 219.565 27.3488L221.327 29.7736C222.541 28.5456 223.291 26.8589 223.291 25C223.291 24.6519 223.265 24.3098 223.214 23.9756Z" fill="white"/>
<path d="M216.497 10.4969H203.095C202.487 10.4969 201.994 10.9901 201.994 11.5984C201.994 12.2068 202.487 12.7 203.095 12.7H208.821C207.613 13.4565 206.524 14.3857 205.589 15.4532H198.102C197.493 15.4533 197 15.9465 197 16.5549C197 17.1632 197.493 17.6564 198.102 17.6564H203.995C202.724 19.8117 201.994 22.322 201.994 25C201.994 28.116 202.982 31.0056 204.661 33.3723H201.535C200.927 33.3723 200.434 33.8655 200.434 34.4738C200.434 35.0822 200.927 35.5754 201.535 35.5754H206.583C207.27 36.2197 208.02 36.7978 208.821 37.2999H198.215C197.607 37.2999 197.114 37.7931 197.114 38.4014C197.114 39.0098 197.607 39.503 198.215 39.503H216.497C224.494 39.503 231 32.9969 231 24.9999C231 17.0029 224.494 10.4969 216.497 10.4969ZM221.848 32.229C221.828 32.2461 221.807 32.2634 221.786 32.2791C221.761 32.297 221.736 32.3136 221.71 32.3292C220.239 33.3791 218.439 33.9975 216.497 33.9975C214.555 33.9975 212.755 33.3791 211.283 32.3292C211.258 32.3136 211.233 32.297 211.208 32.2791C211.186 32.2632 211.166 32.246 211.146 32.229C208.935 30.5881 207.499 27.9586 207.499 25C207.499 20.0387 211.536 16.0024 216.497 16.0024C221.458 16.0024 225.495 20.0387 225.495 25C225.495 27.9587 224.059 30.5881 221.848 32.229Z" fill="white"/>
<path d="M210.462 21.8809L213.315 22.8078C213.81 22.0907 214.541 21.5489 215.395 21.2945V18.2954C213.246 18.6473 211.432 20.0114 210.462 21.8809Z" fill="white"/>
<path d="M217.784 28.6453C217.381 28.788 216.948 28.8664 216.497 28.8664C216.046 28.8664 215.613 28.788 215.21 28.6453L213.448 31.0706C214.365 31.5333 215.401 31.7944 216.497 31.7944C217.593 31.7944 218.628 31.5334 219.546 31.0706L217.784 28.6453Z" fill="white"/>
<path d="M212.631 25C212.631 24.9674 212.632 24.9352 212.633 24.9028L209.78 23.9756C209.729 24.3098 209.702 24.6519 209.702 25C209.702 26.8589 210.453 28.5457 211.667 29.7737L213.429 27.3488C212.929 26.6972 212.631 25.883 212.631 25Z" fill="white"/>
<path d="M12.8213 32.7139L13.252 32.6729C13.7031 32.6045 14.1611 32.543 14.626 32.4883C15.1045 32.4199 15.5967 32.3379 16.1025 32.2422C17.3193 32.0371 18.2832 31.8184 18.9941 31.5859C19.8965 27.8535 20.3477 23.9434 20.3477 19.8555C20.3477 18.3242 20.2725 16.998 20.1221 15.877C16.4033 15.1797 11.6865 14.8311 5.97168 14.8311H5.41797L6.34082 9.86816H6.77148C11.9668 9.86816 16.4854 10.2852 20.3271 11.1191C21.0654 11.2695 21.6123 11.4131 21.9678 11.5498C22.3369 11.6865 22.6992 11.9189 23.0547 12.2471C23.4102 12.5752 23.7588 12.9375 24.1006 13.334C24.8936 14.3047 25.3174 15.043 25.3721 15.5488C25.4814 16.5605 25.5361 17.6953 25.5361 18.9531C25.5361 20.2109 25.4814 21.5371 25.3721 22.9316C25.2627 24.3262 25.0986 25.7002 24.8799 27.0537C24.4287 29.9932 23.8203 32.3994 23.0547 34.2725C22.8906 34.6963 22.7061 35.0039 22.501 35.1953C22.3096 35.373 21.9131 35.5645 21.3115 35.7695C20.71 35.9609 19.9648 36.1455 19.0762 36.3232C18.2012 36.501 17.2236 36.6514 16.1436 36.7744C14.1338 37.0068 11.4541 37.2051 8.10449 37.3691V17.7227L13.1494 16.6357L13.2314 21.0449L12.8213 32.7139ZM31.1143 17.8867L36.0977 17.0459V21.168L35.9746 26.1309L41.8604 24.6953C42.6943 22.0566 43.1113 19.6641 43.1113 17.5176C43.1113 17.0664 43.084 16.6426 43.0293 16.2461C40.7188 15.5215 36.1592 15.0225 29.3506 14.749L30.1299 9.90918C35.9678 10.1416 41.0264 10.7021 45.3057 11.5908C45.6748 11.6729 46.2627 12.2129 47.0693 13.2109C47.8623 14.1953 48.2725 14.8857 48.2998 15.2822C48.3408 15.6787 48.3613 16.0684 48.3613 16.4512V17.5996C48.3613 19.377 47.9102 21.6738 47.0078 24.4902C46.5156 26.0215 46.0303 27.0059 45.5518 27.4434C45.333 27.6484 45.1348 27.7988 44.957 27.8945L42.9473 28.5508C44.9434 30.7246 46.7891 33.1104 48.4844 35.708L44.2188 38.5996L39.0918 29.5762L36.0977 29.7402L35.9336 37L31.4834 37.3691L31.1143 17.8867ZM64.501 14.5234L60.9736 14.9131L61.0146 23.6084L60.4199 33.124L64.1729 33.2676L63.8242 37.5127C58.9707 37.4443 55.0674 37.1504 52.1143 36.6309L52.5244 32.7959L56.0723 32.9395L55.7646 15.2412C54.5068 15.2959 53.249 15.3643 51.9912 15.4463L51.6016 11.5088C53.9121 11.1396 56.291 10.8799 58.7383 10.7295L63.9473 10.3809L64.501 14.5234ZM71.3096 26.3359L67.7822 11.8779L72.9912 10.3809L76.1699 26.1309L77.0107 32.7959L78.2002 32.6729C78.2002 32.6729 78.8975 29.0566 80.292 21.8242C80.9756 18.1465 81.6318 14.332 82.2607 10.3809L87.5518 11.7139L86.793 15.0361C86.6836 15.542 86.5264 16.2188 86.3213 17.0664C84.4756 24.5723 83.3818 28.9678 83.04 30.2529C83.04 30.2529 82.7393 31.3398 82.1377 33.5137C81.5771 35.5645 81.208 36.7266 81.0303 37C81.0303 37 79.8135 37.0752 77.3799 37.2256C76.2178 37.2939 75.042 37.3281 73.8525 37.3281L71.3096 26.3359ZM96.6367 32.4268L106.583 33.9238L105.496 38.3945L102.399 37.9844C97.8467 37.3555 94.4287 36.7334 92.1455 36.1182L91.8789 12.4727C96.7051 11.2422 101.299 10.415 105.66 9.99121L106.378 14.8721L96.5547 16L96.7598 22.1318L105.578 21.7627L105.25 26.582L96.8008 26.2949L96.6367 32.4268ZM126.209 15.1592C124.609 15.2275 122.661 15.3506 120.364 15.5283L120.549 24.0596L120.077 37L115.504 37.3691L115.258 15.7129C114.068 15.7402 112.968 15.7812 111.956 15.8359C110.958 15.8906 110.11 15.918 109.413 15.918L109.782 11.4678C114.513 10.8525 119.811 10.5449 125.676 10.5449L126.209 15.1592ZM130.68 31.9141C129.846 24.4082 129.381 17.4902 129.285 11.1602L134.494 10.3398L135.335 31.4629C136.456 32.1191 138.11 32.4473 140.298 32.4473C140.653 32.4473 141.125 32.4131 141.713 32.3447L142.8 10.1963L148.439 10.9141L146.532 31.1553C146.491 31.6611 146.143 32.2832 145.486 33.0215C144.844 33.7598 144.324 34.334 143.928 34.7441C143.107 35.5918 142.561 36.1455 142.287 36.4053C142.027 36.6514 141.781 36.7812 141.549 36.7949C139.307 36.9043 137.837 36.9727 137.14 37C136.442 37.041 136.039 37.0547 135.93 37.041C135.834 37.041 135.663 36.9727 135.417 36.8359C135.171 36.6855 134.904 36.5078 134.617 36.3027C134.344 36.0977 134.077 35.8789 133.817 35.6465L132.259 34.3135C131.302 33.4932 130.775 32.6934 130.68 31.9141ZM153.71 17.8867L158.693 17.0459V21.168L158.57 26.1309L164.456 24.6953C165.29 22.0566 165.707 19.6641 165.707 17.5176C165.707 17.0664 165.68 16.6426 165.625 16.2461C163.314 15.5215 158.755 15.0225 151.946 14.749L152.726 9.90918C158.563 10.1416 163.622 10.7021 167.901 11.5908C168.271 11.6729 168.858 12.2129 169.665 13.2109C170.458 14.1953 170.868 14.8857 170.896 15.2822C170.937 15.6787 170.957 16.0684 170.957 16.4512V17.5996C170.957 19.377 170.506 21.6738 169.604 24.4902C169.111 26.0215 168.626 27.0059 168.147 27.4434C167.929 27.6484 167.73 27.7988 167.553 27.8945L165.543 28.5508C167.539 30.7246 169.385 33.1104 171.08 35.708L166.814 38.5996L161.688 29.5762L158.693 29.7402L158.529 37L154.079 37.3691L153.71 17.8867ZM176.412 17.8867L181.211 17.0459L181.334 20.9219V23.2598L187.261 22.1729C188.095 20.8467 188.512 19.3359 188.512 17.6406C188.512 17.1895 188.471 16.7656 188.389 16.3691C185.025 15.4258 180.268 14.9541 174.115 14.9541L174.854 10.0732C180.938 10.1553 186.146 10.6611 190.48 11.5908C191.123 11.7549 191.834 12.459 192.613 13.7031C193.352 14.8789 193.721 15.6992 193.721 16.1641C193.721 16.6289 193.687 17.1211 193.618 17.6406C193.55 18.1465 193.447 18.6934 193.311 19.2812C192.805 21.4551 192.258 22.8086 191.67 23.3418C191.287 23.6973 190.207 24.1484 188.43 24.6953L188.389 24.8594L192.47 26.7051C192.661 27.5254 192.757 28.3389 192.757 29.1455C192.757 29.9385 192.709 30.6357 192.613 31.2373C192.518 31.8389 192.401 32.4062 192.265 32.9395C191.8 34.6074 191.301 35.6191 190.768 35.9746C189.92 36.5352 186.7 37.0684 181.108 37.5742C179.372 37.7246 178.005 37.8135 177.007 37.8408L176.412 17.8867ZM181.621 33.5137C184.15 33.2949 185.996 33.001 187.158 32.6318C187.582 31.2373 187.794 30.1914 187.794 29.4941C187.794 28.7832 187.773 28.25 187.732 27.8945C187.705 27.5254 187.589 27.2588 187.384 27.0947L181.498 26.5L181.621 33.5137Z" fill="white"/>
</svg>
